# xmcd CD database file
#
# Track frame offsets:
#	150
#	16068
#	35187
#	54570
#	75034
#	93845
#	113961
#	135139
#	159335
#	176889
#	201097
#	218436
#	238167
#	268850
#
# Disc length: 3839 seconds
#
# Revision: 1
# Processed by: cddbd v1.5.2PL0 Copyright (c) Steve Scherf et al.
# Submitted via: CDex 1.70beta2
#
DISCID=ae0efd0e
DTITLE=Paul Camilleri - CAMILLERI 4
DYEAR=2007
DGENRE=Blues
TTITLE0=You don't know
TTITLE1=Angel Face
TTITLE2=Crazy for you
TTITLE3=We found love
TTITLE4=Count on you
TTITLE5=You're fine
TTITLE6=You gotta do
TTITLE7=Strike like lightning
TTITLE8=Can't get any better
TTITLE9=River of love
TTITLE10=Love me baby
TTITLE11=Gets better
TTITLE12=Jealous Man
TTITLE13=Jealous Man (Radio Edit)
EXTD=YEAR: 2007
EXTT0=
EXTT1=
EXTT2=
EXTT3=
EXTT4=
EXTT5=
EXTT6=
EXTT7=
EXTT8=
EXTT9=
EXTT10=
EXTT11=
EXTT12=
EXTT13=
PLAYORDER=
